<svg width="24" height="24" viewBox="0 0 24 24" fill="none" xmlns="http://www.w3.org/2000/svg">
<path d="M3.16406 5.23828H15.9375L16.1953 5.26172L16.3125 5.30859L16.4766 5.44922L17.8945 6.86719L17.9648 6.92578L18.0469 7.01953L18.1875 7.14844L18.2461 7.20703V7.23047L18.293 7.25391L21.2812 10.2422L21.375 10.3242L21.4453 10.4062L21.4688 10.418V10.4414L21.5156 10.4648L22.125 11.0742V11.0977L22.1719 11.1211L22.2656 11.2148L22.3594 11.2969L22.4648 11.4141L22.5 11.4961L22.4883 11.6719L22.4531 11.8242L22.3828 11.9297L22.2422 11.9648L21.9844 11.9766L21.3398 11.9883H7.73438L7.61719 11.9297L7.51172 11.8125L7.42969 11.7188L7.35938 11.6484V11.625H7.33594L7.25391 11.5312L7.07812 11.3555L6.99609 11.2617L3.30469 7.57031L3.22266 7.47656L3.16406 7.42969L3.08203 7.33594L3 7.25391L2.92969 7.19531L2.87109 7.125L2.77734 7.04297L2.14453 6.41016L2.0625 6.31641L1.93359 6.1875L1.83984 6.10547L1.66406 5.91797L1.53516 5.77734L1.5 5.71875V5.56641L1.55859 5.42578L1.64062 5.32031L1.71094 5.27344L1.79297 5.26172L3.16406 5.23828ZM5.25 5.96484L4.23047 5.97656H2.71875L2.76562 6.03516L2.85938 6.11719L2.98828 6.24609L3.08203 6.32812L3.22266 6.45703L3.44531 6.67969L3.53906 6.76172L4.82812 8.05078L4.91016 8.14453L5.01562 8.23828L5.09766 8.33203L5.20312 8.42578L5.28516 8.51953L5.37891 8.60156L5.46094 8.69531L5.56641 8.78906L5.64844 8.88281L5.75391 8.97656L5.83594 9.07031L5.95312 9.17578L5.96484 9.19922H5.98828L6.01172 9.24609L6.17578 9.39844L6.24609 9.48047L6.33984 9.5625L6.43359 9.66797L6.52734 9.75L6.58594 9.82031L6.67969 9.90234L6.82031 10.0547L6.91406 10.1367L7.00781 10.2422L7.07812 10.3008L7.16016 10.3945L7.26562 10.4883L7.34766 10.582L7.48828 10.7109L7.53516 10.7695H7.55859V10.793L7.65234 10.875L7.78125 11.0156L7.96875 11.2031L8.05078 11.2383L8.13281 11.25H20.7539L21.1406 11.2383L21.1875 11.2266L21.1641 11.168L21.0469 11.0625L20.8711 10.8984L20.7891 10.8047L20.1914 10.207L20.1094 10.1133L15.9961 6L15.9141 5.97656L14.0859 5.96484H5.25Z" fill="black"/>
<path d="M1.76953 10.4766H1.875L1.99219 10.5234L2.09766 10.6055L2.21484 10.7109L2.30859 10.793L2.46094 10.9453L2.48438 10.957V10.9805L2.53125 11.0039L4.96875 13.4414L5.02734 13.4883L5.10938 13.582L5.21484 13.6758L5.29688 13.7695L5.40234 13.8633L5.48438 13.957L5.58984 14.0508L5.67188 14.1445L5.77734 14.2383L5.85938 14.332L5.96484 14.4258L6.04688 14.5195L6.15234 14.6133L6.23438 14.707L6.375 14.8359V14.8594L6.42188 14.8828L7.27734 15.7383L7.35938 15.832L7.51172 15.9727L7.6875 16.1484L7.75781 16.2305L7.85156 16.3125L7.93359 16.4062L8.03906 16.4766L8.08594 16.4531L8.19141 16.3242L8.34375 16.1836L8.48438 16.0547L8.64844 15.9375L8.85938 15.8203L8.98828 15.7734L9.11719 15.75H9.41016L9.60938 15.7852L9.79688 15.8555L9.92578 15.9258L10.0898 16.043L10.2773 16.2188L10.3945 16.3359L10.5469 16.4414L10.6992 16.5117H10.8047L10.875 16.4766L11.0273 16.3477L11.168 16.2188L11.3086 16.0781L11.4609 15.9609L11.6367 15.8555L11.7773 15.7852L11.918 15.75L12.1406 15.7383L12.4102 15.7734L12.6211 15.8438L12.7617 15.9141L12.9258 16.0312L13.1016 16.1953L13.2188 16.3125L13.3828 16.4297L13.5352 16.5117H13.6523L13.7578 16.4531L13.9219 16.3125L14.1094 16.125L14.2383 16.0195L14.3672 15.9258L14.5781 15.8086L14.707 15.7617L14.9531 15.7383L15.1992 15.7617L15.375 15.8086L15.5156 15.8672L15.6445 15.9375L15.75 16.0195L15.8789 16.125L16.0078 16.2539L16.1367 16.3594L16.2891 16.4648L16.3594 16.5L16.5 16.5117L16.6523 16.418L16.8516 16.2305L16.9922 16.0898L17.1914 15.9375L17.4023 15.8203L17.5664 15.7617L17.6484 15.75H17.9414L18.1523 15.7852L18.3398 15.8555L18.5039 15.9492L18.6328 16.043L18.75 16.1484L18.8906 16.2773L18.9844 16.3594L19.1367 16.4648L19.2656 16.5117L19.3477 16.5L19.4648 16.4414L19.5234 16.3945L19.582 16.3359L19.7344 16.1953L19.8281 16.1016L19.9922 15.9727L20.168 15.8672L20.3438 15.7852L20.5078 15.75H20.8008L21 15.7852L21.1758 15.8555L21.3164 15.9258L21.4805 16.043L21.5977 16.1484L21.6914 16.2422L21.7852 16.3242L21.9375 16.4297L22.2539 16.5469L22.3594 16.6055L22.4414 16.6758L22.4766 16.7695V16.9336L22.4414 17.0391L22.3945 17.1094L22.3008 17.1914L22.1836 17.2266L21.8672 17.2148L21.6914 17.1562L21.5273 17.0742L21.3867 16.9805L21.082 16.7227L20.9531 16.6055L20.8359 16.5352L20.7188 16.4883H20.6016L20.4961 16.5469L20.3789 16.6523L20.25 16.7578L19.9688 17.0156L19.7578 17.1328L19.5703 17.1914L19.3359 17.2266H19.1602L18.9727 17.2031L18.832 17.1562L18.6094 17.0391L18.5039 16.957L18.3398 16.8164L18.1641 16.6523L18.0469 16.5586L17.9062 16.4883L17.8594 16.4766H17.7773L17.6484 16.5469L17.4844 16.6875L17.3672 16.793L17.1797 16.9688L17.0625 17.0508L16.875 17.1445L16.7227 17.1914L16.4531 17.2266H16.2539L16.0781 17.1914L15.9023 17.1211L15.7266 17.0156L15.6094 16.9219L15.4453 16.7812L15.3516 16.6875L15.1523 16.5352L15.0352 16.4766H14.9414L14.8008 16.5469L14.6719 16.6523L14.5312 16.7812L14.4258 16.8867L14.2617 17.0156L14.0859 17.1211L13.9688 17.168L13.7344 17.2148L13.418 17.2266L13.2305 17.1914L13.0781 17.1328L12.9141 17.0391L12.7266 16.8984L12.4453 16.6406L12.293 16.5234L12.1758 16.4766H12.0938L11.9883 16.5234L11.8945 16.5938L11.7656 16.6992L11.625 16.8281L11.5078 16.9336L11.332 17.0625L11.1914 17.1445L11.0273 17.1914L10.9102 17.2148L10.7461 17.2266H10.582L10.3828 17.1914L10.2305 17.1328L10.043 17.0273L9.89062 16.9102L9.71484 16.7578L9.62109 16.6641L9.49219 16.5586L9.39844 16.5L9.26953 16.4766L9.16406 16.5L9.05859 16.582L8.87109 16.7344L8.75391 16.8398L8.60156 16.9688L8.44922 17.0742L8.33203 17.1445L8.14453 17.2148L7.95703 17.25L7.76953 17.2617L7.60547 17.1797L7.51172 17.0742L7.40625 16.9453L7.26562 16.8047L7.18359 16.7109L6.84375 16.3711L6.76172 16.2773L2.13281 11.6484V11.625L2.08594 11.6016L1.76953 11.2852L1.6875 11.1914L1.58203 11.0742L1.5 10.9336L1.48828 10.8398L1.54688 10.6992L1.72266 10.5234L1.76953 10.4766Z" fill="black"/>
<path d="M1.76953 7.10156H1.875L1.99219 7.14844L2.15625 7.27734L2.26172 7.38281L2.35547 7.46484L2.49609 7.60547L2.58984 7.6875L7.95703 13.0547L8.03906 13.1016L8.08594 13.0781L8.19141 12.9492L8.30859 12.8438L8.40234 12.75L8.56641 12.6211L8.73047 12.5156L8.91797 12.4219L9.02344 12.3867L9.10547 12.375H9.38672L9.59766 12.4102L9.78516 12.4805L9.9375 12.5625L10.1016 12.6797L10.2539 12.8203L10.4062 12.9727L10.5234 13.0547L10.6875 13.1367L10.7812 13.1484L10.875 13.1016L11.0391 12.9609L11.1797 12.832L11.3086 12.7031L11.4961 12.5625L11.6836 12.457L11.8125 12.3984L11.918 12.375L12.1172 12.3633L12.3281 12.3867L12.5508 12.4453L12.7383 12.5273L12.8789 12.6211L13.0078 12.7266L13.1953 12.9141L13.3594 13.043L13.5234 13.1367H13.6641L13.793 13.0547L13.9922 12.8672L14.1211 12.7383L14.2383 12.6445L14.4023 12.5273L14.625 12.4102L14.7773 12.375L14.9648 12.3633L15.1758 12.3867L15.3633 12.4336L15.5391 12.5039L15.6914 12.5977L15.8555 12.7266L15.9961 12.8672L16.125 12.9727L16.2891 13.0898L16.3477 13.125L16.5117 13.1367L16.6758 13.0195L16.8633 12.8438L16.9922 12.7148L17.1914 12.5625L17.4258 12.4336L17.5547 12.3867L17.7188 12.3633H17.8477L18.1055 12.3984L18.2812 12.457L18.4688 12.5508L18.6211 12.6562L18.75 12.7617V12.7852L18.7969 12.8086V12.832L18.8438 12.8555L18.9961 12.9961L19.1602 13.1016L19.2656 13.1367L19.3477 13.125L19.4648 13.0664L19.5586 12.9727L19.6875 12.8672L19.8281 12.7266L19.9922 12.5977L20.168 12.4922L20.3086 12.4219L20.4375 12.3867L20.5195 12.375H20.7891L20.9883 12.4102L21.1875 12.4805L21.3516 12.5742L21.4805 12.668L21.5977 12.7734L21.6797 12.8555L21.7734 12.9375L21.9141 13.043L22.2422 13.1719L22.3828 13.2539L22.4531 13.3359L22.4766 13.4062V13.582L22.4297 13.6875L22.3477 13.7812L22.2305 13.8398L22.1836 13.8516L21.8789 13.8398L21.6914 13.7812L21.5273 13.6992L21.3867 13.6055L21.2344 13.4766L21.0703 13.3359L20.9297 13.207L20.7656 13.125L20.7188 13.1133H20.6133L20.4961 13.1719L20.3555 13.3008L20.2383 13.3945L20.0977 13.5234L19.9688 13.6406L19.7578 13.7578L19.582 13.8164L19.3477 13.8516H19.1484L18.9844 13.8281L18.8086 13.7695L18.6445 13.6875L18.5273 13.6055L18.3984 13.4883L18.3047 13.4062L18.2109 13.3125L18.082 13.207L17.9414 13.125L17.8594 13.1016L17.7539 13.1133L17.625 13.1953L17.4727 13.3242L17.332 13.4531L17.1797 13.5938L17.0625 13.6758L16.8867 13.7695L16.7344 13.8164L16.5 13.8516H16.3125L16.1367 13.8281L15.9844 13.7812L15.7969 13.6875L15.6797 13.6055L15.5156 13.4648L15.3633 13.3242L15.1875 13.1836L15.0469 13.1016H14.9414L14.8008 13.1719L14.6367 13.3125L14.543 13.3945L14.4258 13.5117L14.2617 13.6406L14.0859 13.7461L13.9336 13.8047L13.7578 13.8398L13.4414 13.8516L13.2656 13.8281L13.0781 13.7578L12.8906 13.6523L12.7266 13.5234L12.4453 13.2656L12.293 13.1484L12.2344 13.1133L12.1875 13.1016H12.0938L11.9883 13.1484L11.8828 13.2305L11.7305 13.3594L11.6367 13.4414L11.5078 13.5586L11.332 13.6875L11.1914 13.7695L11.0625 13.8164L10.8398 13.8516H10.582L10.3828 13.8164L10.207 13.7461L10.043 13.6523L9.89062 13.5352L9.77344 13.4297L9.67969 13.3477L9.52734 13.207L9.39844 13.125L9.26953 13.1016L9.15234 13.1367L9.04688 13.2188L8.88281 13.3477L8.73047 13.4883L8.54297 13.6406L8.35547 13.7578L8.17969 13.8281L7.95703 13.875L7.875 13.8867H7.74609L7.61719 13.8164L7.51172 13.6992L7.42969 13.6055L7.32422 13.4883L7.24219 13.4062L7.16016 13.3125L6.28125 12.4336L6.23438 12.375L6.14062 12.293L6.04688 12.1875L5.96484 12.1172L5.88281 12.0234L5.78906 11.9414L5.70703 11.8477L2.15625 8.29688L2.10938 8.23828L2.08594 8.22656V8.20312L2.03906 8.17969L1.71094 7.85156L1.60547 7.72266L1.53516 7.62891L1.5 7.54688V7.42969L1.55859 7.3125L1.66406 7.19531L1.74609 7.11328L1.76953 7.10156Z" fill="black"/>
<path d="M1.76953 8.60156H1.88672L2.05078 8.68359L2.16797 8.78906L2.26172 8.87109L2.35547 8.96484L2.39062 8.98828V9.01172L2.4375 9.03516L2.88281 9.48047L2.97656 9.5625L3.03516 9.63281L3.12891 9.71484L3.94922 10.5352V10.5586L3.99609 10.582L7.51172 14.0977L7.60547 14.1797L7.74609 14.3203L7.85156 14.4492L7.89844 14.4961V14.5195H7.92188V14.543L7.96875 14.5664L8.0625 14.6016L8.15625 14.6133H21.6914L22.0781 14.625L22.2656 14.6484L22.3594 14.6953L22.4414 14.7891L22.4648 14.8594V15.0586L22.4414 15.1641L22.3711 15.2812L22.2773 15.3281L22.2188 15.3398L21.9023 15.3516L21.0703 15.3633H7.73438L7.61719 15.3047L7.51172 15.1758L7.35938 15.0234L7.27734 14.9297L7.07812 14.7305L6.99609 14.6367L2.27344 9.91406L2.19141 9.82031L1.65234 9.28125L1.53516 9.12891L1.48828 9L1.52344 8.88281L1.58203 8.78906L1.6875 8.67188L1.76953 8.60156Z" fill="black"/>
<path d="M1.81641 11.9648L1.93359 11.9883L2.05078 12.0586L2.20312 12.1875L2.32031 12.3047L2.41406 12.3867L2.68359 12.6562L2.77734 12.7383L7.10156 17.0625L7.18359 17.1562L7.46484 17.4375L7.55859 17.5195L7.64062 17.5898L7.72266 17.6836L7.85156 17.8242L7.93359 17.918L8.02734 17.9648L8.20312 17.9883H21.7852L22.125 18L22.2773 18.0234L22.3594 18.0703L22.4414 18.1641L22.4648 18.2344V18.4219L22.4414 18.5273L22.3828 18.6328L22.3125 18.6914L22.2422 18.7148L21.5742 18.7266H7.72266L7.62891 18.6914L7.51172 18.5625L7.42969 18.4688L7.30078 18.3281L6.85547 17.8828L6.79688 17.8125L6.70312 17.7305L6.57422 17.5898L1.76953 12.7852L1.6875 12.6914L1.59375 12.5859L1.51172 12.457L1.48828 12.4102L1.5 12.3047L1.55859 12.1875L1.75781 11.9883L1.81641 11.9648Z" fill="black"/>
<path d="M16.2188 5.27344L16.2656 5.29688L15.9844 5.30859L15.4102 5.32031L15.0234 5.33203L14.4375 5.34375H9.31641L7.71094 5.33203L7.65234 5.32031L6.84375 5.30859V5.29688H14.6484L16.2188 5.27344Z" fill="black"/>
</svg>
