<svg width="24" height="24" viewBox="0 0 24 24" fill="none" xmlns="http://www.w3.org/2000/svg">
<g clip-path="url(#clip0_25_2)">
<path fill-rule="evenodd" clip-rule="evenodd" d="M12 0C2.4 0 0 2.4 0 12C0 21.6 2.4 24 12 24C21.6 24 24 21.6 24 12C24 2.4 21.6 0 12 0Z" fill="#6933B0"/>
<path d="M9.9744 11.2464H10.848V8.8848H12V8.0736H9.9696V11.2464H9.9744Z" fill="#FFE3C7"/>
<path d="M8.16477 10.5408C8.06877 10.5456 7.97277 10.5312 7.88637 10.4928C7.79517 10.4592 7.71837 10.4064 7.64637 10.3392C7.57917 10.272 7.52637 10.1904 7.49277 10.0992C7.45917 10.008 7.44477 9.9168 7.44477 9.8208H9.59997C9.59997 9.8208 9.61437 9.6576 9.61437 9.4896C9.61437 8.5296 9.04797 8.0064 8.15997 8.0064C7.22397 8.0064 6.57117 8.688 6.57117 9.6624C6.57117 10.6368 7.21437 11.3376 8.15037 11.3376C9.01917 11.3376 9.60477 10.8336 9.61917 10.0992H8.76477C8.74077 10.2336 8.66397 10.3584 8.54877 10.44C8.44317 10.5216 8.30397 10.56 8.16477 10.5408ZM8.16477 8.736C8.23677 8.7264 8.30877 8.7312 8.38077 8.7504C8.45277 8.7696 8.51517 8.8032 8.57277 8.8464C8.63037 8.8896 8.67837 8.9472 8.71197 9.0096C8.74557 9.072 8.76957 9.144 8.77917 9.216H7.49277C7.53597 9.072 7.62717 8.9472 7.75197 8.8608C7.87677 8.7744 8.02557 8.7312 8.17437 8.7408H8.16477V8.736Z" fill="#FFE3C7"/>
<path d="M5.05442 8.0784L4.45442 10.0224L3.86882 8.0784H2.90402L2.40002 11.2464H3.20162L3.50402 9.2736L4.09442 11.2464H4.78082L5.39522 9.24L5.68802 11.2464H6.50402L6.00482 8.0784H5.05442Z" fill="#FFE3C7"/>
<path d="M13.6032 8.0016C12.672 8.0016 12.144 8.4576 12.168 9.2352H13.0752C13.0752 8.904 13.248 8.7552 13.608 8.7552C13.8672 8.7552 14.0304 8.8608 14.0304 9.024C14.0304 9.1296 13.992 9.168 13.8336 9.216L13.1136 9.4128C12.4128 9.6 12.1008 9.8928 12.1008 10.3728C12.1008 10.9392 12.5136 11.3184 13.1184 11.3184C13.3104 11.3376 13.5072 11.2944 13.6752 11.1984C13.8432 11.1024 13.9776 10.9536 14.0544 10.7712V11.2512H14.8896V9.1344C14.8752 8.376 14.3904 8.0016 13.6032 8.0016ZM13.2912 10.584C13.0704 10.584 12.96 10.4784 12.96 10.32C12.96 10.1616 13.0368 10.08 13.2768 10.008L14.0352 9.7968V9.8544C14.0352 9.9504 14.0208 10.0512 13.9824 10.1424C13.944 10.2336 13.8912 10.3152 13.8192 10.3824C13.752 10.4496 13.6656 10.5072 13.5744 10.5408C13.488 10.5744 13.392 10.5888 13.2912 10.584Z" fill="#FFE3C7"/>
<path d="M19.1711 12.0912V12.9024H20.0783V15.264H20.9519V12.9024H21.8591V12.0912H19.1711Z" fill="#FFE3C7"/>
<path d="M16.0225 12.0912H15.0577L14.3761 13.2672H14.0305V12.0912H13.1569V15.2592H14.0305V14.0448H14.3713L15.1009 15.2592H16.0897L15.1249 13.6416L16.0225 12.0912Z" fill="#FFE3C7"/>
<path d="M8.22237 12.0144C7.29117 12.0144 6.75837 12.4704 6.78717 13.248H7.69437C7.69437 12.9168 7.86717 12.768 8.22717 12.768C8.48637 12.768 8.64957 12.8784 8.64957 13.0416C8.64957 13.1424 8.61117 13.1856 8.44797 13.2288L7.72797 13.4256C7.03197 13.6176 6.71997 13.9056 6.71997 14.3856C6.71997 14.952 7.13277 15.3312 7.73757 15.3312C7.92957 15.3504 8.12637 15.312 8.29437 15.2112C8.46237 15.1104 8.59197 14.9616 8.66877 14.784V15.264H9.50397V13.1424C9.49437 12.3936 9.00957 12.0144 8.22237 12.0144ZM7.90557 14.6016C7.68957 14.6016 7.57917 14.496 7.57917 14.3328C7.57917 14.1744 7.65597 14.0928 7.89597 14.0256L8.64957 13.8144V13.8672C8.64957 13.9632 8.63517 14.064 8.59677 14.1552C8.55837 14.2464 8.50557 14.328 8.43357 14.3952C8.36157 14.4624 8.27997 14.52 8.18877 14.5536C8.10237 14.5872 8.00157 14.6064 7.90557 14.6016Z" fill="#FFE3C7"/>
<path d="M11.6303 12.0144C11.4479 12.0048 11.2655 12.048 11.1119 12.1488C10.9583 12.2496 10.8383 12.3936 10.7759 12.5664V12.0864H9.90234V16.128H10.7759V14.7984C10.8431 14.9664 10.9631 15.1104 11.1167 15.2064C11.2703 15.3024 11.4527 15.3504 11.6303 15.336C12.3503 15.336 12.8255 14.7744 12.8255 13.68C12.8255 12.5808 12.3551 12.0144 11.6303 12.0144ZM11.3903 14.5248C10.9919 14.5248 10.7519 14.2512 10.7519 13.6752C10.7519 13.0992 10.9919 12.8256 11.3855 12.8256C11.7791 12.8256 11.9759 13.0992 11.9759 13.6752C11.9759 14.2512 11.7743 14.5248 11.3903 14.5248Z" fill="#FFE3C7"/>
<path d="M5.05442 12.0912L4.45442 14.0304L3.86882 12.0912H2.90402L2.40002 15.264H3.20162L3.50402 13.2912L4.09922 15.264H4.78562L5.40002 13.2576L5.69282 15.264H6.50882L6.00962 12.096H5.05442V12.0912Z" fill="#FFE3C7"/>
<path d="M17.5152 14.5536C17.4192 14.5584 17.3232 14.544 17.2368 14.5056C17.1456 14.472 17.0688 14.4192 17.0016 14.352C16.9344 14.2848 16.8816 14.2032 16.848 14.1168C16.8144 14.0256 16.7952 13.9344 16.8 13.8384H18.9552C18.9552 13.8384 18.9696 13.6752 18.9696 13.5072C18.9696 12.5472 18.4032 12.024 17.5152 12.024C16.5792 12.024 15.9264 12.7056 15.9264 13.68C15.9264 14.6544 16.5696 15.3552 17.5056 15.3552C18.3744 15.3552 18.96 14.8512 18.9792 14.1168H18.12C18.096 14.256 18.0192 14.376 17.904 14.4576C17.7936 14.5344 17.6544 14.5728 17.5152 14.5536ZM17.5152 12.7488C17.5872 12.7392 17.6592 12.744 17.7312 12.7632C17.8032 12.7824 17.8656 12.816 17.9232 12.8592C17.9808 12.9024 18.0288 12.96 18.0624 13.0224C18.096 13.0848 18.12 13.1568 18.1296 13.2288H16.8432C16.8864 13.0848 16.9776 12.96 17.1024 12.8688C17.2272 12.7824 17.376 12.7392 17.5248 12.7488H17.5152Z" fill="#FFE3C7"/>
</g>
<defs>
<clipPath id="clip0_25_2">
<path d="M0 12C0 5.37258 5.37258 0 12 0V0C18.6274 0 24 5.37258 24 12V12C24 18.6274 18.6274 24 12 24V24C5.37258 24 0 18.6274 0 12V12Z" fill="white"/>
</clipPath>
</defs>
</svg>
