<svg width="24" height="24" viewBox="0 0 24 24" fill="none" xmlns="http://www.w3.org/2000/svg">
<mask id="mask0_1_57" style="mask-type:luminance" maskUnits="userSpaceOnUse" x="0" y="0" width="24" height="24">
<path d="M12 24C18.6274 24 24 18.6274 24 12C24 5.37258 18.6274 0 12 0C5.37258 0 0 5.37258 0 12C0 18.6274 5.37258 24 12 24Z" fill="white"/>
</mask>
<g mask="url(#mask0_1_57)">
<path d="M12 24C18.6274 24 24 18.6274 24 12C24 5.37258 18.6274 0 12 0C5.37258 0 0 5.37258 0 12C0 18.6274 5.37258 24 12 24Z" fill="#005BFF"/>
<path d="M91.0404 -25.2204C90.9732 -25.2312 90.6504 -25.1532 90.438 -25.0092C88.5312 -23.7276 86.0016 -20.7732 82.5792 -17.3736C80.6172 -15.4224 78.3648 -13.3164 75.8016 -11.298C74.31 -10.1304 72.7128 -9.11281 71.0196 -8.26561C59.8716 -2.65921 54.5652 -0.529208 49.8168 3.32759C49.5336 3.55799 49.2132 3.72479 48.8916 3.89639C44.9676 5.71319 40.5636 9.81599 37.4316 13.1712C35.6808 15.0552 34.332 16.6932 33.6864 17.5848C31.8468 20.148 28.38 26.7252 23.1624 32.6784C19.4628 36.9072 15.5472 40.032 10.962 42.7308H18.7884C21.4056 41.292 23.8308 39.834 25.4256 38.5428C25.8384 38.208 26.1948 37.8744 26.496 37.5624C27.4104 36.5928 28.536 34.8432 29.628 32.6796C31.8012 28.3884 34.3104 22.524 37.4316 18.3C38.9808 16.1928 40.6752 14.4984 42.5376 13.6296C42.7608 13.5732 42.9612 13.7292 42.9612 13.9524C42.2472 17.118 39.4608 19.716 37.4316 21.8676C35.916 23.4732 34.7556 24.8772 35.2584 25.6572C35.7636 26.4144 36.9984 25.1988 37.4316 24.7656C40.4196 22.1904 45.3912 15.2568 48.858 12.2688C49.386 11.8164 50.1516 10.986 50.6412 10.4964C52.7028 8.13359 54.0408 6.09359 56.6832 3.74159C64.2852 -3.03601 68.4552 -2.96881 76.7604 -9.47881C80.2608 -12.2208 83.3268 -14.9748 85.7568 -17.3712C89.3016 -20.8824 91.4424 -23.67 91.4196 -24.7512C91.4196 -25.008 91.2972 -25.164 91.0404 -25.2192V-25.2204Z" fill="#F1117E"/>
<path d="M4.30799 1.10639C6.06719 -0.339605 7.98359 -1.5804 10.0176 -2.6028C15.0768 -5.1456 21.8988 -8.6532 25.4244 -11.508C25.8372 -11.8428 26.1936 -12.1764 26.4948 -12.4896C27.4092 -13.4592 28.5348 -15.2088 29.6268 -17.3712C31.8 -21.6636 34.3092 -27.5268 37.4304 -31.752C38.9796 -33.858 40.674 -35.5524 42.5364 -36.4224C42.7584 -36.4776 42.96 -36.3216 42.96 -36.0984C42.246 -32.9328 39.4584 -30.336 37.4304 -28.1844C35.9136 -26.5788 34.7544 -25.1748 35.256 -24.3948C35.7612 -23.6376 36.9972 -24.8532 37.4304 -25.2864C40.4172 -27.8616 45.3888 -34.7952 48.8568 -37.782C49.3848 -38.2344 50.1504 -39.0648 50.64 -39.5556C52.7028 -41.9184 54.0408 -43.9584 56.682 -46.3104C64.2852 -53.088 68.4552 -53.022 76.7604 -59.5308C80.2608 -62.2728 83.3268 -65.0268 85.7556 -67.4232C89.3016 -70.9344 91.4412 -73.722 91.4184 -74.8032C91.4184 -75.0588 91.296 -75.2148 91.0404 -75.2712C90.9732 -75.282 90.6492 -75.204 90.438 -75.0588C88.5312 -73.7772 86.0016 -70.824 82.5792 -67.4232C80.6172 -65.472 78.3648 -63.366 75.8004 -61.3476C74.3088 -60.18 72.7116 -59.1624 71.0184 -58.3164C59.8704 -52.7088 54.564 -50.58 49.8156 -46.722C49.5312 -46.4916 49.2108 -46.3248 48.8904 -46.1544C44.9664 -44.3364 40.5624 -40.2348 37.4304 -36.8796C35.6796 -34.9956 34.3308 -33.3564 33.684 -32.4648C31.8444 -29.9016 28.3776 -23.3244 23.16 -17.3712C18.3828 -11.9124 13.248 -8.2908 6.77279 -5.0532C1.80119 -2.8908 -0.171609 -0.517206 -5.38921 3.73079C-6.21721 4.40039 -6.93841 5.0352 -7.85281 5.8368C-7.85281 5.8368 -7.86361 5.8368 -7.86361 5.8476C-9.37921 7.182 -10.8456 8.568 -12.3084 9.9576V12.846C-7.71841 9.5964 -3.95401 7.89959 4.30799 1.10639Z" fill="#F1117E"/>
<path d="M8.36879 25.0452C11.2608 21.5376 12.6768 20.3064 14.4612 18.768C16.2456 17.2296 18.5844 15.5676 21.1068 13.476C24.5004 10.6872 27.6972 7.52159 30.15 3.87359C31.0404 2.62559 32.1984 1.58279 33.3828 0.619195C34.7244 -0.481205 36.12 -1.52041 37.4292 -2.65801C39.0576 -4.04041 39.6072 -3.4572 49.3356 -13.4712C50.472 -14.6412 51.3084 -15.4764 52.4124 -16.2912C52.9692 -16.6704 53.5608 -17.0712 54.1512 -17.3724C59.1216 -19.9584 64.9596 -20.4624 70.1028 -22.6668C73.5024 -24.2316 76.0644 -27.114 78.7212 -29.6568C81.3144 -32.1348 84.4596 -33.954 87.4272 -35.9328C91.1124 -38.8752 94.6176 -42.2484 97.26 -46.1772C98.1504 -47.4252 99.3084 -48.4692 100.493 -49.4316C101.834 -50.532 103.23 -51.5712 104.539 -52.7088C106.168 -54.0912 106.717 -53.508 116.446 -63.522C117.582 -64.692 118.418 -65.5284 119.522 -66.342C120.079 -66.7212 120.671 -67.122 121.261 -67.4232C126.232 -70.0092 132.07 -70.5132 137.213 -72.7188C140.612 -74.2824 143.174 -77.1648 145.831 -79.7076C148.424 -82.1856 151.57 -84.0048 154.537 -85.9836C158.222 -88.926 161.728 -92.2992 164.37 -96.228C165.26 -97.476 166.418 -98.52 167.603 -99.4824C167.941 -99.7608 168.283 -100.034 168.626 -100.307H163.393C162.553 -99.3756 161.696 -98.3592 160.825 -97.2204C157.532 -93.144 153.527 -89.1648 149.264 -86.1168C141.64 -80.7996 135.252 -75.6828 133.524 -75.6168C133.301 -75.6168 133.136 -75.7932 133.078 -76.0068C132.788 -77.0544 134.216 -78.3936 135.162 -79.3392C139.199 -83.3076 151.393 -89.328 155.708 -95.4024C156.823 -96.9972 158.098 -98.6364 159.248 -100.307H154.811C154.086 -99.8232 153.356 -99.312 152.698 -98.7804C151.728 -97.998 151.122 -97.0896 150.434 -96.0612C148.038 -92.5488 142.709 -92.2368 134.951 -82.6956C132.882 -80.1708 130.242 -78.2484 127.493 -76.5312C124.216 -74.502 121.54 -73.4208 118.842 -71.1792C118.106 -70.566 116.501 -68.8836 116.434 -68.8056C115.866 -68.238 114.222 -67.8564 114.404 -69.1392C114.572 -70.0308 116.122 -71.7144 116.902 -73.1748C118.886 -76.5576 121.248 -80.286 124.884 -82.0932C126.79 -83.0412 128.719 -83.4084 131.227 -84.6684C135.581 -86.8452 138.925 -90.0912 142.174 -93.6756C143 -94.5012 143.742 -95.4264 144.493 -96.318C146.333 -98.1576 148.921 -99.2292 151.387 -100.307H144.371C143.956 -100.084 143.54 -99.8508 143.122 -99.606C142.976 -99.5172 140.892 -98.1684 140.123 -97.566C138.604 -96.3936 137.446 -94.8408 136.043 -93.5412C132.108 -89.6064 125.308 -87.9348 121.261 -83.9772C116.189 -78.906 113.339 -73.7556 110.002 -67.4244C108.35 -64.3992 106.667 -61.6704 104.539 -58.9512C101.45 -55.05 97.7388 -52.4304 93.714 -47.1684C90.4212 -43.092 86.4156 -39.114 82.1544 -36.066C74.5296 -30.7488 68.1408 -25.632 66.4128 -25.5648C66.1908 -25.5648 66.0264 -25.7424 65.9676 -25.956C65.6772 -27.0036 67.1064 -28.3428 68.052 -29.2884C72.0876 -33.2568 84.2832 -39.2772 88.5972 -45.3516C90.228 -47.6808 92.1984 -50.1084 93.6252 -52.5864C96.468 -57.4464 98.1288 -59.5308 101.351 -62.1624C102.487 -63.1092 103.523 -64.11 104.539 -65.1948C105.33 -66.0408 106.099 -66.666 106.769 -67.4244C116.356 -78.3708 114.227 -81.0132 116.646 -83.142C125.207 -90.51 132.208 -93.018 135.832 -95.9616C137.344 -97.2216 138.367 -99.0168 139.885 -100.307H133.493C132.164 -99.186 130.708 -97.9008 128.831 -96.3732C128.003 -95.7036 127.28 -95.0688 126.367 -94.2672C126.367 -94.2672 126.355 -94.2672 126.355 -94.2552C123.022 -91.3224 119.927 -88.1352 116.591 -85.2036C115.609 -84.3684 113.614 -82.2168 112.008 -77.9028C110.537 -75.0156 108.073 -73.344 104.539 -70.1004C104.216 -69.81 103.892 -69.4416 103.548 -69.1188C102.968 -68.5728 102.366 -68.004 101.864 -67.4244C98.832 -63.9912 96.9024 -60.234 94.0716 -57.7032C93.3912 -57.0012 92.4972 -56.5968 91.6968 -56.1876C87.9732 -54.3708 82.1652 -53.1552 76.0116 -49.5552C75.8664 -49.4652 73.782 -48.1176 73.0128 -47.5152C71.4936 -46.3416 70.3356 -44.7888 68.9328 -43.4904C64.998 -39.5556 58.1976 -37.884 54.1512 -33.9264C49.0788 -28.8552 46.2288 -23.7036 42.8916 -17.3724C41.2404 -14.3484 39.5568 -11.6196 37.4292 -8.90041C34.9764 -5.80201 28.3368 0.549593 25.7076 3.03239C25.0716 3.63239 24.5004 4.2948 23.9952 5.0088C23.7876 5.3028 23.5236 5.6496 23.1984 6.0288C22.3128 7.0632 20.6964 9.10559 19.998 9.84359C19.998 9.84359 19.8072 10.1136 19.6596 10.2468C18.1716 11.592 16.6248 12.852 15.0432 13.9836C7.41839 19.3008 1.02959 24.4176 -0.698409 24.4848C-0.921609 24.4848 -1.08481 24.3072 -1.14361 24.0948C-1.43401 23.0472 -0.0048082 21.7068 0.940792 20.7612C2.12879 19.5936 4.02239 18.2484 6.21479 16.776C6.61679 16.506 8.03039 15.4944 8.37479 15.2928C9.34799 14.7252 10.2672 13.9656 11.1444 13.2096L11.1492 13.206C11.4324 12.9624 11.6556 12.6588 11.8236 12.324C12.4128 11.148 13.5696 10.4568 15.0888 10.0752C15.4224 9.99119 15.7416 9.8592 16.032 9.6744C16.9404 9.0948 17.9556 8.4024 19.0308 7.4568C19.0332 7.4544 19.0344 7.45199 19.0368 7.45079C19.998 6.53879 20.8332 5.61839 21.4872 4.69799C23.118 2.36879 25.0884 -0.058804 26.5152 -2.5368C29.358 -7.3968 31.0188 -9.4812 34.2408 -12.1128C35.3772 -13.0596 36.4128 -14.0604 37.4292 -15.144C38.2212 -15.9912 38.9892 -16.6152 39.6588 -17.3736C49.2456 -28.3212 47.1168 -30.9624 49.536 -33.0912C58.0968 -40.4604 65.0976 -42.9684 68.7216 -45.9108C70.2828 -47.2116 71.322 -49.0836 72.924 -50.3808C75.0972 -52.1424 87.6732 -57.6264 92.5332 -61.5624C92.946 -61.896 93.3024 -62.2308 93.6036 -62.5428C94.5168 -63.5136 95.6436 -65.2632 96.7356 -67.4256C98.9088 -71.7168 101.417 -77.5812 104.539 -81.8052C106.088 -83.9124 107.783 -85.6068 109.645 -86.4768C109.868 -86.532 110.069 -86.376 110.069 -86.1528C109.355 -82.9872 106.567 -80.3892 104.539 -78.2388C103.022 -76.6332 101.863 -75.2292 102.365 -74.448C102.87 -73.6908 104.106 -74.9076 104.539 -75.3408C107.526 -77.916 112.498 -84.8496 115.966 -87.8364C116.494 -88.2888 117.259 -89.1192 117.749 -89.6088C119.812 -91.9716 121.15 -94.0128 123.791 -96.3648C125.653 -98.0244 127.309 -99.2736 128.872 -100.309H122.158C120.211 -99.1956 118.536 -98.0856 116.924 -96.7764C116.641 -96.546 116.321 -96.3792 115.999 -96.2088C112.075 -94.392 107.672 -90.2892 104.539 -86.934C102.79 -85.05 101.441 -83.4108 100.794 -82.5192C98.9544 -79.956 95.4876 -73.3788 90.27 -67.4256C85.4928 -61.9668 80.358 -58.3464 73.8828 -55.1088C68.91 -52.9452 66.9372 -50.5716 61.7196 -46.3248C60.8928 -45.6552 60.1704 -45.0204 59.256 -44.2176C59.256 -44.2176 59.2452 -44.2176 59.2452 -44.2068C55.9116 -41.2728 52.8168 -38.0856 49.4796 -35.1552C48.4992 -34.3188 46.5036 -32.1672 44.898 -27.8532C43.4268 -24.966 40.9632 -23.2944 37.4292 -20.0508C37.1052 -19.7604 36.7824 -19.3932 36.4368 -19.0692C35.8572 -18.5232 35.2548 -17.9556 34.7532 -17.3748C31.7208 -13.9416 29.7924 -10.1844 26.9604 -7.65481C26.2812 -6.95161 25.3872 -6.54841 24.5868 -6.13801C21.6756 -4.71841 17.4924 -3.666 12.8664 -1.554C12.384 -1.3344 11.9412 -1.0344 11.5584 -0.667202C10.7952 0.0635981 9.61079 1.0968 8.31479 1.9356C6.14159 3.342 4.89959 4.9068 3.57959 6.0012C2.26079 7.0956 0.707992 8.8944 -1.23241 9.5976C-1.23241 9.5976 -9.13441 12.7812 -12.3084 15.5256V20.1096C-11.4168 19.2756 -10.4352 18.552 -9.33721 18.006C-7.43041 17.0592 -2.00401 11.8608 -1.10881 11.7516C0.159592 11.598 2.17079 10.7172 3.99839 9.66C4.09559 9.6036 3.93719 9.2904 4.24439 9.1056C4.49039 8.958 4.70279 9.1872 4.73759 9.1668C5.34239 8.8068 6.00719 8.382 7.08479 7.3704C7.37519 7.0584 7.66439 6.74279 7.95359 6.42359C8.50559 5.87159 9.02159 5.2752 9.52679 4.674C10.428 3.6024 11.4852 2.6664 12.6888 1.9512C14.898 0.635999 17.49 -0.241207 19.6824 -1.37761C21.7668 -2.82721 24.516 -4.80361 24.7656 -3.57361C24.7656 -3.28441 24.4764 -2.9388 24.0084 -2.5368C22.782 -1.5228 20.34 -0.184802 18.4788 1.32C17.5092 2.1024 16.902 3.01079 16.2156 4.03919C15.5148 5.06519 14.5656 5.8188 13.3764 6.6072H13.3752C13.3416 6.6312 13.308 6.6528 13.2732 6.6756C13.2732 6.6756 13.272 6.6756 13.2708 6.6768C13.2504 6.6912 13.2288 6.7056 13.2072 6.7188L13.2048 6.7212L12.492 7.07639L12.3732 7.25519H12.372L12.0192 7.7532H11.8764C11.6868 7.8288 11.2608 8.00639 10.9644 8.14919C10.9596 8.15159 10.9548 8.15399 10.95 8.15639C10.9464 8.15759 10.9428 8.16 10.9392 8.1612C10.9332 8.166 10.9272 8.1708 10.9224 8.1756C10.9176 8.178 10.8744 8.22959 10.872 8.23199C9.36239 9.20759 7.65239 10.3704 5.67479 12.1536C5.03159 12.5376 3.89999 13.1532 2.76959 13.476C2.60999 13.5216 2.41439 13.5504 2.22719 13.5684C1.73639 13.6164 1.28159 13.8468 0.952793 14.214C0.0947925 15.1728 -0.955209 16.5372 -1.04161 16.6752C-1.75081 17.808 -4.50841 22.1832 -6.72601 23.568C-8.76961 24.834 -10.5792 25.7304 -12.306 26.7696V32.3532C-7.48201 30.0444 -1.92601 29.49 2.99519 27.3816C4.24559 26.8056 6.84959 26.8884 8.36999 25.044L8.36879 25.0452ZM47.2956 -19.0908C47.4648 -19.9824 49.0128 -21.666 49.7928 -23.1252C51.7776 -26.508 54.1392 -30.2352 57.7752 -32.0436C59.6808 -32.9904 61.6104 -33.3588 64.1184 -34.6188C68.472 -36.7956 71.8164 -40.0404 75.066 -43.626C75.8916 -44.4516 76.6332 -45.3756 77.3844 -46.2684C79.8708 -48.7536 83.724 -49.8384 86.7924 -51.4284C88.878 -52.878 91.626 -54.8544 91.8768 -53.6256C91.8768 -53.3352 91.5864 -52.9896 91.1184 -52.5888C89.892 -51.5736 87.4512 -50.2356 85.5888 -48.7308C84.6192 -47.9496 84.0132 -47.04 83.3268 -46.0116C80.9292 -42.5004 75.6 -42.1884 67.842 -32.646C65.7732 -30.1212 63.1332 -28.1988 60.384 -26.4816C57.1068 -24.4524 54.4308 -23.3712 51.7332 -21.1308C50.9976 -20.5176 49.392 -18.834 49.3248 -18.756C48.7572 -18.1884 47.1132 -17.8068 47.2956 -19.0908Z" fill="#F1117E"/>
<path d="M-10.4268 3.74159C-2.82482 -3.03721 1.34518 -2.97001 9.65038 -9.48001C13.1508 -12.222 16.2168 -14.976 18.6468 -17.3724C22.1916 -20.8836 24.3324 -23.6712 24.3096 -24.7524C24.3096 -25.0092 24.1872 -25.1652 23.9304 -25.2204C23.8632 -25.2312 23.5404 -25.1532 23.328 -25.0092C21.4212 -23.7276 18.8916 -20.7732 15.4692 -17.3736C13.5072 -15.4224 11.2548 -13.3164 8.69158 -11.298C7.19998 -10.1304 5.60278 -9.11281 3.90958 -8.26561C-3.61682 -4.47961 -8.48042 -2.27881 -12.3072 -0.0624081V5.57519C-11.748 4.97759 -11.1348 4.37039 -10.428 3.74159H-10.4268Z" fill="#F1117E"/>
<path d="M175.208 -100.308C173.694 -99.192 172.374 -98.118 171.648 -97.2996C171.398 -97.0296 171.235 -96.7416 170.98 -96.3408C168.226 -92.0268 164.346 -92.328 156.811 -82.7412C155.675 -81.3036 154.337 -80.0544 152.809 -79.0512C148.171 -75.9852 146.466 -76.5768 137.716 -68.3052C137.404 -68.0148 137.081 -67.7028 136.757 -67.4244C136.512 -67.2132 136.266 -66.99 136.01 -66.7896C131.629 -63.39 121.261 -56.1768 119.602 -56.6904C119.513 -56.724 119.456 -56.8128 119.49 -56.9136C120.66 -61.0824 130.225 -64.7496 131.296 -66.3108C131.374 -66.4224 131.407 -66.7572 130.961 -66.7572C120.694 -66.9576 119.813 -58.8096 116.825 -56.0676C116.758 -56.0232 107.059 -50.0928 104.539 -47.25C104.29 -46.98 104.126 -46.692 103.871 -46.2912C101.117 -41.9772 97.2372 -42.2784 89.7024 -32.6916C88.566 -31.254 87.228 -30.0048 85.7004 -29.0016C81.0624 -25.9356 79.3572 -26.5272 70.6068 -18.2556C70.2948 -17.9652 69.972 -17.6532 69.648 -17.3748C69.4032 -17.1636 69.1572 -16.9404 68.9016 -16.74C64.5204 -13.3404 54.1524 -6.1272 52.4928 -6.6408C52.404 -6.6744 52.3476 -6.7632 52.3812 -6.864C53.5512 -11.0328 63.1164 -14.7 64.1868 -16.2612C64.2648 -16.3728 64.2984 -16.7076 63.852 -16.7076C53.5848 -16.908 52.704 -8.76 49.716 -6.018C49.6488 -5.9736 39.9504 -0.0431946 37.4304 2.79961C37.1808 3.06961 37.0176 3.3576 36.762 3.7584C34.3488 7.5396 25.2252 13.6584 25.2252 13.6584C24.1788 14.5572 22.3716 17.0712 21.168 18.0888C19.5732 19.4388 18.7848 19.8732 16.5732 21.0936L16.5528 21.1044C13.6692 22.6944 12.0504 24.5076 10.9752 25.5132C9.1356 26.784 6.8268 28.6476 3.4968 31.794C3.1848 32.0844 2.862 32.3964 2.538 32.6748C2.2932 32.886 2.0472 33.1092 1.7916 33.3096C-1.5936 35.9364 -8.55 40.8372 -12.306 42.696V42.7272H-5.9664C-4.5504 42.036 -3.0036 41.208 -1.308 40.1772C0.264001 39.2292 1.7472 38.1372 3.1284 36.9336C5.046 35.262 6.774 33.846 8.2224 32.6748H8.2212C15.5568 26.7456 17.82 26.2212 23.3604 22.5204C24.9876 21.4272 26.4816 20.0796 27.7752 18.5412C30.894 14.7996 34.0272 11.8884 37.4292 8.4864C41.2584 4.6584 45.768 1.5612 49.8372 -2.0256C53.148 -4.6452 57.8184 -5.0244 65.8008 -9.8736C67.3728 -10.8216 68.856 -11.9136 70.2372 -13.1172C72.1548 -14.7888 73.8828 -16.2048 75.3312 -17.376C82.6656 -23.3064 84.93 -23.8308 90.4704 -27.5316C92.0976 -28.6248 93.5916 -29.9724 94.8852 -31.5108C98.004 -35.2524 101.137 -38.1636 104.539 -41.5656C108.368 -45.3936 112.878 -48.4908 116.947 -52.0776C120.258 -54.6972 124.928 -55.0764 132.911 -59.9256C134.483 -60.8736 135.966 -61.9656 137.347 -63.1692C139.265 -64.8408 140.993 -66.2568 142.441 -67.428C149.776 -73.3584 152.04 -73.8828 157.58 -77.5836C159.208 -78.6768 160.702 -80.0244 161.995 -81.5628C165.114 -85.3044 168.247 -88.2156 171.649 -91.6176C174.818 -94.7856 178.452 -97.4532 181.918 -100.312H175.208V-100.308Z" fill="#F1117E"/>
<path d="M3.7008 15.2556C3.7896 15.9108 3.41399 16.5612 2.79839 16.812C1.89719 17.1804 0.897594 16.6056 0.766794 15.6432C0.677994 14.988 1.05359 14.3376 1.66919 14.0868C2.57159 13.7196 3.57 14.2932 3.7008 15.2556ZM1.79519 12.72C0.0563944 13.0068 -0.978006 14.7924 -0.357606 16.4364C0.100794 17.652 1.38599 18.3912 2.67359 18.18C4.41239 17.8932 5.44679 16.1076 4.82639 14.4636C4.36679 13.248 3.08279 12.5088 1.79519 12.72Z" fill="white"/>
<path d="M10.2888 14.6904L8.13839 15.2664L9.92879 10.9632C9.98759 10.8204 9.85679 10.674 9.70679 10.7136L5.73839 11.7768C5.34719 11.8812 5.13239 12.3156 5.31959 12.6948C5.45759 12.972 5.79119 13.098 6.09599 13.0164L7.86119 12.5436L6.07079 16.8504C6.01199 16.992 6.14279 17.1372 6.29159 17.0976L10.602 15.942C10.9056 15.8604 11.1324 15.5856 11.1132 15.2748C11.0868 14.8524 10.6836 14.5836 10.29 14.6892L10.2888 14.6904Z" fill="white"/>
<path d="M23.8956 7.5792C23.7912 7.1904 23.3496 6.9828 22.962 7.176C22.6848 7.3152 22.5552 7.638 22.6344 7.9332L23.19 10.008L19.0488 8.2512C18.9048 8.19 18.7512 8.3208 18.7908 8.4708L19.938 12.7536C20.0172 13.0488 20.2908 13.2636 20.6004 13.2456C21.0324 13.2204 21.3108 12.8184 21.2076 12.4296L20.6472 10.3368L24.7884 12.0948C24.9324 12.156 25.086 12.0252 25.0464 11.8752L23.8944 7.5768L23.8956 7.5792Z" fill="white"/>
<path d="M15.1104 13.5252C13.662 13.9128 12.378 13.4508 12.198 12.78C12.018 12.108 12.8988 11.0664 14.3472 10.6788C15.7956 10.2912 17.0796 10.7532 17.2596 11.424C17.4396 12.096 16.5588 13.1376 15.1104 13.5252ZM14.0136 9.4332C11.9172 9.9948 10.5384 11.6448 10.9344 13.1196C11.3292 14.5944 13.3488 15.3336 15.444 14.772C17.5404 14.2104 18.9192 12.5604 18.5232 11.0856C18.1284 9.612 16.1088 8.8716 14.0136 9.4332Z" fill="white"/>
<path d="M19.05 6.0684C19.2564 6.0132 19.3584 5.8308 19.3008 5.6136C19.2432 5.3964 19.062 5.2896 18.8556 5.3448C18.6492 5.4 18.5472 5.5824 18.6048 5.7996C18.6624 6.0168 18.8436 6.1236 19.05 6.0684ZM19.0512 6.414C18.714 6.504 18.3684 6.3348 18.2508 5.8956C18.1332 5.4564 18.348 5.136 18.6852 5.046C18.894 4.9896 19.0572 5.0424 19.1736 5.154H19.1796L19.1316 4.9716L19.4712 4.8804L19.8156 6.1656L19.476 6.2568L19.428 6.0756H19.422C19.3776 6.2328 19.2624 6.3588 19.0536 6.414H19.0512ZM17.4672 5.4156L17.8092 5.3244L18.1536 6.6096L17.8116 6.7008L17.6748 6.1884L17.1096 6.3396L17.2464 6.852L16.9068 6.9432L16.5624 5.658L16.902 5.5668L17.0256 6.0288L17.5908 5.8776L17.4672 5.4156ZM14.9052 6.3528C14.7408 6.3972 14.6436 6.51 14.6628 6.6948L15.2688 6.5328C15.2136 6.372 15.072 6.3084 14.904 6.3528H14.9052ZM14.8488 6.0732C15.2388 5.9688 15.5388 6.1536 15.6564 6.5928L15.6744 6.66L14.7144 6.9168C14.7864 7.1088 14.9616 7.1844 15.1596 7.1316C15.3432 7.0824 15.444 6.9456 15.4968 6.8532L15.7356 7.0548C15.6504 7.1916 15.5112 7.362 15.2412 7.4352C14.8212 7.548 14.4756 7.3476 14.3664 6.9396C14.2572 6.5304 14.4468 6.1812 14.85 6.0732H14.8488ZM14.118 6.3132L14.2008 6.6216L13.7724 6.7368L14.034 7.7136L13.692 7.8048L13.4304 6.828L13.002 6.9432L12.9192 6.6348L14.118 6.3132ZM11.808 8.31L11.4636 7.0248L11.8032 6.9336L12.012 7.7124H12.018L12.4044 6.7728L12.7128 6.69L13.0572 7.9752L12.7152 8.0664L12.5064 7.2876H12.5004L12.114 8.2272L11.808 8.3088V8.31ZM12.378 6.2304C12.4464 6.486 12.312 6.6948 12.072 6.7596C11.8332 6.8232 11.6148 6.7092 11.5452 6.4536L11.7708 6.3936C11.8056 6.5028 11.8908 6.5736 12.0132 6.54C12.138 6.5064 12.1764 6.4044 12.1524 6.2916L12.378 6.2316V6.2304ZM10.704 8.304C10.9104 8.2488 11.0124 8.0664 10.9548 7.8492C10.8972 7.632 10.716 7.5252 10.5096 7.5804C10.3032 7.6356 10.2012 7.818 10.2588 8.0352C10.3164 8.2524 10.4976 8.3592 10.704 8.304ZM10.704 8.6508C10.3668 8.7408 10.0212 8.5716 9.9036 8.1324C9.786 7.6932 10.0008 7.3728 10.338 7.2828C10.5468 7.2264 10.71 7.2792 10.8264 7.3908H10.8324L10.7844 7.2084L11.124 7.1172L11.4684 8.4024L11.1288 8.4936L11.0808 8.3124H11.0748C11.0304 8.4696 10.9152 8.5956 10.7064 8.6508H10.704ZM9.4656 7.56L9.81 8.8452L9.468 8.9364L9.2076 7.9656L8.6676 8.1108L8.928 9.0816L8.5884 9.1728L8.244 7.8876L9.4656 7.56ZM7.692 8.0352L8.0508 7.9392L7.7208 10.002L7.368 10.0968L7.5012 9.336L6.6324 8.3196L7.0332 8.2128L7.5684 8.9076L7.6932 8.0364L7.692 8.0352ZM6.9276 9.6168L6.4824 9.7356L5.8368 9.2496L6.0012 9.864L5.6616 9.9552L5.3172 8.67L5.6568 8.5788L5.7996 9.1104L6.0804 8.466L6.5148 8.3496L6.1452 9.0744L6.9288 9.6156L6.9276 9.6168ZM4.4136 9.2148C4.2048 9.2712 4.0896 9.4536 4.1484 9.6732C4.2072 9.8928 4.398 9.9936 4.6068 9.9384C4.8156 9.8832 4.9272 9.7008 4.8684 9.48C4.8096 9.2604 4.6212 9.1584 4.4124 9.2148H4.4136ZM4.3272 8.892C4.7364 8.7828 5.1144 8.982 5.2224 9.3852C5.3304 9.7884 5.1024 10.1508 4.6932 10.26C4.284 10.3692 3.906 10.17 3.798 9.7668C3.69 9.3636 3.918 9.0012 4.3272 8.892ZM3.36 9.1956L3.7044 10.4808L3.3624 10.572L3.102 9.6012L2.562 9.7464L2.8224 10.7172L2.4828 10.8084L2.1384 9.5232L3.36 9.1956Z" fill="white"/>
</g>
</svg>
