<svg width="24" height="24" viewBox="0 0 24 24" fill="none" xmlns="http://www.w3.org/2000/svg">
<g clip-path="url(#clip0_5_73)">
<path d="M0 11.267C0 7.3232 0 5.3513 0.767525 3.84495C1.44266 2.51993 2.51993 1.44266 3.84495 0.767525C5.3513 0 7.3232 0 11.267 0H12.733C16.6768 0 18.6487 0 20.1551 0.767525C21.4801 1.44266 22.5574 2.51993 23.2325 3.84495C24 5.3513 24 7.3232 24 11.267V12.733C24 16.6768 24 18.6487 23.2325 20.1551C22.5574 21.4801 21.4801 22.5574 20.1551 23.2325C18.6487 24 16.6768 24 12.733 24H11.267C7.3232 24 5.3513 24 3.84495 23.2325C2.51993 22.5574 1.44266 21.4801 0.767525 20.1551C0 18.6487 0 16.6768 0 12.733V11.267Z" fill="url(#paint0_linear_5_73)"/>
<path d="M18.1586 8.46872C17.299 8.46872 16.5228 8.72866 15.86 9.17356V5.11292H14.0265V12.6017C14.0265 14.8801 15.8802 16.7136 18.1485 16.7136C20.4168 16.7136 22.2915 14.891 22.2915 12.5806C22.2915 10.2702 20.458 8.46872 18.1586 8.46872ZM9.83771 13.1308L8.15981 8.75982H6.87551L5.18751 13.1308L3.49957 8.75982H1.49945L4.45157 16.4454H5.73586L7.50711 11.8675L9.28846 16.4454H10.5728L13.5148 8.75982H11.5257L9.83771 13.1308ZM18.1494 14.881C16.9063 14.881 15.86 13.8869 15.86 12.5916C15.86 11.2963 16.8441 10.3132 18.1595 10.3132C19.4749 10.3132 20.4589 11.3384 20.4589 12.5916C20.4589 13.8448 19.4126 14.881 18.1494 14.881Z" fill="white"/>
</g>
<defs>
<linearGradient id="paint0_linear_5_73" x1="8.07275" y1="26.0727" x2="22.8" y2="1.52727" gradientUnits="userSpaceOnUse">
<stop stop-color="#6F01FB"/>
<stop offset="1" stop-color="#FF49D7"/>
</linearGradient>
<clipPath id="clip0_5_73">
<path d="M0 12C0 5.37258 5.37258 0 12 0V0C18.6274 0 24 5.37258 24 12V12C24 18.6274 18.6274 24 12 24V24C5.37258 24 0 18.6274 0 12V12Z" fill="white"/>
</clipPath>
</defs>
</svg>
