<svg width="36" height="30" viewBox="0 0 36 30" fill="none" xmlns="http://www.w3.org/2000/svg">
<path d="M19.057 30C10.782 30 4.05699 23.301 4.05699 15.027C4.05699 6.752 10.782 0 19.057 0C27.331 0 34.057 6.752 34.057 15.027C34.057 23.301 27.331 30 19.057 30Z" fill="#FF5226"/>
<path d="M16.734 2.03L0 28.14H7.671L17.338 13.09L17.102 12.983L14.422 23.753L20.096 24.753L25.928 17.423L25.612 17.266L23.642 25.592L36.005 23.236L33.483 19.082L29.027 20.102L29.553 20.707L31.628 12.012L26.794 8.78L20.464 16.74L20.779 16.898L23.379 6.468L16.734 2.03Z" fill="#FFDD00"/>
<path d="M16.734 2.03L0 28.14H7.671L17.338 13.09L17.102 12.983L14.422 23.753L20.096 24.753L25.928 17.423L25.612 17.266L23.642 25.592L28.612 24.645L31.628 12.012L26.794 8.78L20.464 16.74L20.779 16.898L23.379 6.468L16.734 2.03Z" fill="#FFDD00"/>
</svg>
