<svg width="134" height="42" viewBox="0 0 134 42" fill="none" xmlns="http://www.w3.org/2000/svg">
<path d="M18.447 41.3909C16.437 41.3909 14.817 39.7709 14.817 37.7609L14.907 21.0709C14.907 20.7209 15.027 20.3809 15.247 20.1009L30.157 1.37088C31.407 -0.199125 33.677 -0.459124 35.247 0.790876C36.817 2.04088 37.077 4.31088 35.827 5.88088L22.387 22.7809C22.197 23.0309 22.087 23.3409 22.087 23.6409V37.7509C22.077 39.7609 20.457 41.3809 18.447 41.3809V41.3909Z" fill="#4060FF"/>
<path d="M48.2771 41.4809C40.0671 41.2309 33.6271 34.2809 33.6271 26.0609V16.2309C33.6271 14.2209 35.2471 12.6009 37.2571 12.6009C39.2671 12.6009 40.8871 14.2209 40.8871 16.2309V26.1609C40.8871 30.3809 44.1171 34.0209 48.3371 34.2309C52.8471 34.4509 56.5771 30.8509 56.5771 26.3909V16.2409C56.5771 14.2309 58.1971 12.6109 60.2071 12.6109C62.2171 12.6109 63.8371 14.2309 63.8371 16.2409V26.3909C63.8371 34.8709 56.8071 41.7409 48.2771 41.4909H48.2671L48.2771 41.4809Z" fill="#4060FF"/>
<path d="M118.217 41.7309C110.007 41.4809 103.567 34.5309 103.567 26.3109V16.4809C103.567 14.4709 105.187 12.8509 107.197 12.8509C109.207 12.8509 110.827 14.4709 110.827 16.4809V26.4109C110.827 30.6309 114.057 34.2709 118.277 34.4809C122.787 34.7009 126.517 31.1009 126.517 26.6409V16.4909C126.517 14.4809 128.137 12.8609 130.147 12.8609C132.157 12.8609 133.777 14.4809 133.777 16.4909V26.6409C133.777 35.1209 126.747 41.9909 118.217 41.7409H118.207L118.217 41.7309Z" fill="#4060FF"/>
<path d="M94.6371 41.3909C92.6271 41.3909 91.0071 39.7709 91.0071 37.7609V27.8309C91.0071 23.6109 87.7771 19.9709 83.5571 19.7609C79.0471 19.5409 75.3171 23.1409 75.3171 27.6009V37.7509C75.3171 39.7609 73.6971 41.3809 71.6871 41.3809C69.6771 41.3809 68.0571 39.7609 68.0571 37.7509V27.9209C68.0571 19.7009 74.4871 12.7509 82.7071 12.5009C90.9271 12.2509 98.2671 19.1209 98.2671 27.6009V37.7509C98.2671 39.7609 96.6471 41.3809 94.6371 41.3809H94.6471L94.6371 41.3909Z" fill="#4060FF"/>
<path d="M6.51705 8.36087C4.81705 9.38087 2.60705 8.85087 1.56705 7.17087L0.557052 5.54087C-0.532948 3.81087 0.0270517 1.53087 1.79705 0.500868C3.48705 -0.489132 5.66705 0.0608681 6.70705 1.72087L7.71705 3.35087C8.78705 5.07087 8.23705 7.32087 6.50705 8.37087L6.51705 8.36087Z" fill="#4060FF"/>
</svg>
